<svg height="300" viewBox="0 0 289 300" width="289" xmlns="http://www.w3.org/2000/svg"><g fill="none" fill-rule="evenodd"><path d="m194.315281 89.4146947 14.689152 7.2500464-48.477303 22.7797749-15.539326-7.315109zm69.216343-31.8780435 15.330337 6.3033708-31.556629 14.8274158-14.665663-6.9029737-.004674.0042741z" fill="#02884f"/><path d="m160.526701 290.195211v-170.75068l118.3324-55.6036476.000207 168.6099026z" fill="#27b370"/><g fill-rule="nonzero"><path d="m263.927385 56.2477221.116975.0419111 15.330337 6.3033708c.538985.2216143.8194.7090151.834911 1.204547l-.001985 168.653235c0 .478585-.253341.91829-.660389 1.159636l-.096618.052101-118.332607 57.744425c-.86582.422507-1.870191-.172838-1.936187-1.113249l-.003436-.098488-.000245-169.895863-14.764605-6.950036c-1.002315-.471838-1.029906-1.867883-.09034-2.393422l.100647-.051187 49.327476-22.7147122c.332512-.1531177.711241-.1637748 1.049557-.0331385l.111157.0487769 14.107231 6.9624826 35.118203-16.5020225-12.070147-5.6814581c-1.002275-.4718041-1.029939-1.8677649-.090462-2.3933679l.100637-.0511944 30.890051-14.2280678c.302441-.1393054.644279-.1611864.959839-.064279zm13.583402 175.3603679v-165.6437984l-115.636691 54.3370784v167.735034zm-57.764301-50.000692.098932.112621.129661.165871 12.968318 17.793837c.06074.084339.115758.166098.176682.267159l.063324.108305.073611.140034c.275772.551286.407081 1.156302.387089 1.744065-.004596.314089-.051669.628367-.149195.961824l-.064633.202528-.086234.220204-13.41631 30.935018-.066727.146916-.05744.114349c-.315161.629877-.764392 1.185541-1.297193 1.61954-.212319.178093-.4395.337372-.695766.485301l-.197875.108935-.203524.100059-26.107122 12.026908c-1.468561.677834-3.196416.308948-4.287335-.908135l-.110545-.128923-.104622-.135983-12.636436-17.335696-.054826-.073419-.048392-.070851-.047468-.074643-.088186-.149012c-.031103-.052953-.057532-.100651-.066348-.119608-.427364-.794916-.555249-1.713047-.363791-2.578458.026572-.126247.05964-.251622.105689-.393256l.050618-.147688.080776-.203216 13.361099-30.809943.051068-.125917c.416383-.952046 1.124333-1.744125 2.043601-2.274055l.186647-.102461.184866-.090419 26.591756-12.251906c1.236394-.566516 2.685556-.268015 3.596231.720115zm43.587137-75.194549.242583.14061.209979.129111c6.792501 4.288754 6.966969 15.478554.819376 25.487621l-.188226.302935-.122728.192267-.010634.022637-.057449.095984-21.936475 33.448332c-.483327.738088-1.208362 1.262405-2.00589 1.480033-.822434.248072-1.707524.190683-2.53071-.181431l-.175404-.084559-.171678-.095853-21.385015-12.809018c-1.88234-1.190328-3.298546-2.947894-4.192207-5.137212-2.345093-5.76001-.847538-13.977218 3.909828-21.230371 6.196318-9.452081 16.115451-14.559805 23.265909-11.92026l.215827.082362.201538.082165.005673-.007816c4.207107-5.837614 9.927568-9.923231 15.409616-11.055799l.298774-.058841.298238-.05294c2.902863-.490795 5.619268-.110174 7.899075 1.170043zm-69.038792-15.5047591-46.113033 21.2339321 12.345168 5.811911 45.370113-21.319551zm69.266967-31.9017978-27.726742 12.771236 11.470113 5.3993258 28.210786-13.2552809z" fill="#0b3521"/><path d="m278.859308 232.450786v-168.6114922l-132.520651-54.51846495-11.146692-4.58331621 8.217124-3.38919803 143.783566 58.57343649v168.4610769z" fill="#ff9a01"/><path d="m142.894982.10186098c.291027-.12003532.613647-.13400423.912104-.04178541l.11068.03955985 143.797632 58.57892628.076736.0353339c.347494.1700196.575047.4569654.680576.7792745.015432.0469847.028546.0953027.038984.1448202l.01622.0930102.011092.1165862.001964.0741644v168.4610769c0 .478522-.253276.918182-.660242 1.159548l-.096598.052108-8.333347 4.067958c-.865833.42266-1.870348-.172677-1.936353-1.113161l-.003437-.098495-.000377-167.7087635-131.684708-54.1741809-11.146692-4.58331618c-1.077515-.44305436-1.113077-1.93387878-.105584-2.44562994l.104226-.04783647zm142.949063 227.43836402v-165.4955059l-5.636629 2.6501124v165.5966295zm-142.432584-224.73505646-4.678652 1.93011236 125.313037 51.551313.03303.014305 14.742976 6.0653932 5.01253-2.3568539z" fill="#4c2d00"/><path d="m232.639669 71.7644641-.004275.0042741v-.0042741l30.906192-14.2266753-.008712-.0042741-117.194053-48.21268585-30.682952 12.97239095-11.533334-4.746554-40.618265 16.7482308 12.0445822 4.9526972-44.9911642 19.0246829 114.427887 53.8571303 49.329706-22.7147123 14.690579 7.2508486 38.324553-17.9852543-.025809-.0129867z" fill="#f0564c"/><path d="m247.330248 78.680289v15.7602558l-38.324388 18.0108992v-15.7859007l38.298744-17.998241z" fill="#b53f34"/><path d="m146.739454 8.03340672.11234.04050155 117.194053 48.21268583.080858.036418.107239.0574316c.88731.5246483.871221 1.8288172-.02876 2.3314174l-.099808.0507108-28.273691 13.014282 12.104779 5.6990041c.507153.2551915.753332.7487043.741885 1.2364301l.000214 15.7282567c0 .4852129-.260328.9298578-.676161 1.1688497l-.098674.0514261-38.324388 18.0108994c-.863372.405749-1.851085-.18852-1.918176-1.119293l-.003618-.100983-.000091-14.9481432-13.362624-6.5952109-48.745316 22.4460301c-.28919.133163-.613624.158678-.916192.076786l-.112326-.035744-.109607-.045811-114.4278864-53.8571298c-1.0210172-.4805565-1.0257499-1.91122-.051613-2.4146181l.1006752-.0471794 42.0132769-17.7654799-9.054338-3.7230412c-1.0416437-.4283209-1.1095162-1.835783-.2027289-2.3913294l.0972824-.0543563.1042362-.047828 40.6182656-16.7482308c.292371-.1205543.616564-.1340467.91607-.0404582l.111048.0401151 11.013311 4.5323198 30.164779-12.75318817c.294641-.1245706.622679-.1398451.925686-.04553991zm-.393387 2.74839108-30.165145 12.7533042c-.294692.1245926-.622793.1398498-.925841.0454917l-.112355-.0405231-11.020479-4.5355762-37.0773032 15.2885393 9.0166736 3.707554c1.0366052.4262491 1.1102897 1.8247169.212067 2.3854029l-.0963869.0549392-.1033231.048517-42.2103789 17.8487554 111.1280895 52.3038198 48.759655-22.4520409c.295565-.1360977.627644-.1596364.935396-.0714367l.114149.0383111.111154.0487769 14.10841 6.9631316 35.115658-16.5027666-11.970489-5.6345367-.046201-.0170422c-.410106-.1698713-.739117-.5355215-.815545-1.0259177l-.013075-.1153504-.003717-.1044122c0-.4952982.266866-.944943.691221-1.1816536l.093304-.0474035 28.095137-12.9336137zm99.635208 70.0199299-35.627342 16.7198453v12.805618l35.627865-16.7433708zm-119.689163-21.5664123.220027.0404645c.284619.0576889.56324.139831.850816.2549043l.217595.092612 44.206485 21.3336217c1.359645.6983352 1.432516 2.5822863.2046 3.4050569l-.111722.0697863-.074242.0401097-.074102.0370871-.074632.0345477-10.618316 4.5273404-20.35343 8.6819154c-1.197053.5091191-2.546234.5283918-3.779581.0497386l-.193737-.0797158-.18761-.0875666-33.247067-16.1037399-10.5823789-5.1237894c-1.3944239-.6726375-1.4953229-2.5863399-.257002-3.4245172l.1094226-.0691558.0748782-.0409874.0746719-.0378532.0770369-.0360446 30.8124443-13.2487335c.286333-.1194197.586166-.2103028.87073-.2669717.604894-.1303186 1.226457-.1459747 1.835113-.0481095zm46.287478-30.2889329c10.504866 5.5716545 14.881341 14.2683705 9.261548 20.2658631-.957558 1.0314191-2.194856 1.9443605-3.697368 2.7305086-9.749476 5.0906176-29.313208 3.6957359-41.259962-2.6328891-4.539706-2.4087067-8.170105-5.6938595-10.279901-9.2555027-3.572818-6.0500298-2.308719-12.0915754 3.900318-15.3342079 9.384522-4.8999746 29.465523-2.4538413 42.075365 4.226228z" fill="#471916"/><path d="m18.7879635 52.7310686 44.7163065-18.436172 12.0445822 4.9526972-44.9911642 19.0246829zm127.5508575-43.41023975-30.682952 12.97239095-11.532273-4.7462535 31.068369-12.80945366z" fill="#ef476f"/><path d="m62.9903376 33.0483711c.2922464-.1204909.6162868-.1340152.9156876-.0405466l.1110101.040066 12.0445821 4.9526972c1.0723502.4409473 1.1142264 1.922319.1156801 2.4403421l-.1033231.048517-44.9911641 19.0246829c-.3137351.1326641-.6644742.1410914-.9820462.0266846l-.1173978-.0486577-11.7697245-5.5412081c-1.0259355-.4830123-1.0241605-1.9227297-.0411779-2.4199005l.1015672-.0465049zm.5139321 2.7042132-41.3777528 17.0602247 8.4606741 3.9829213 41.4586517-17.5307865zm71.1737553-32.26159409c.292241-.1204906.616276-.13401846.915673-.04055646l.111009.04006345 11.146857 4.58331621c1.072401.44094528 1.114252 1.92239493.11564 2.44038449l-.10333.0485132-30.682952 12.9723909c-.294696.1245942-.622801.1398501-.925852.0454881l-.112356-.0405247-11.532274-4.7462535c-1.077258-.4433593-1.112473-1.9339904-.105007-2.4455506l.104223-.0478174zm.51411 2.70451541-27.528539 11.35011238 7.985393 3.2865168 27.186067-11.49438199z" fill="#471916"/></g><path d="m1.34831461 226.235092v-166.3133409l142.92003339 67.1645449v171.042798z" fill="#2274a5"/><path d="m1.34831461 59.9217511 17.43964889-7.1906825 11.7697245 5.5412081 129.969013 61.1722543v170.75068l-16.258353 7.933883v-171.042798z" fill="#0e547f"/><path d="m19.2461895 51.4630012.1160957.0481875 11.7695909 5.5411452 130.0132029 61.1939661.082951.046667c.274284.16417.461199.404471.561062.672374l.030318.091424c.024036.081055.040738.165806.049201.253681l.006404.134085v170.75068c0 .478583-.253339.918288-.660385 1.159634l-.096617.052101-16.3065 7.956461-.081063.03281-.111563.035713-.105549.024307-.115783.016559-.08491.005574-.142938-.002856-.115343-.013841-.080745-.015773-.110432-.030106-.096453-.034788-.060063-.025948-142.96426528-71.915463c-.42266655-.212617-.70051648-.629615-.73805287-1.096056l-.00435285-.108447v-166.3725497l.00930953-.1006844.01482802-.097181.0287674-.1213942.00895331-.0297725c.10055055-.3250328.32494261-.6167545.67089377-.7917481l.1047553-.0481883 17.43649587-7.1890192c.3114502-.1284165.6581589-.1350468.9721863-.0215534zm139.9317885 70.1050888-13.561349 6.373483v168.028989l13.561349-6.618202zm-156.48134879-59.5226967v163.3584267l140.22337079 70.537753v-167.999493zm63.51759699 121.4090947.0702757.150478.0660204.155736 7.8110063 19.617561c.0989615.251086.2868723.503694.479238.66575l.0824689.06364.0943484.062391 17.430494 10.661046c1.0084779.616087 1.7436385 1.682402 1.9540773 2.762166.2025152.990745-.036816 1.963436-.8101996 2.559611l-.1141264.082567-.1443256.089142-.0699857.039288-12.3486864 6.456361 2.9867089 18.906522c.4373823 2.747771-2.2936544 3.696254-4.2972433 2.079845l-.1047593-.087447-.1032897-.092208-.106013-.101868-15.6600262-15.602287-.0730522-.059053c-.1413732-.110426-.256485-.164947-.2660959-.177389l-.049401-.003445-.6573537.04263-14.9184316 1.013796c-.3795944.025746-.760109-.032002-1.1028406-.156762-1.1023026-.380731-2.0756777-1.413381-2.4884683-2.56738-.1435912-.4045-.2160123-.8207-.1992-1.271176l.0127213-.195225.0277035-.193561 2.9598957-16.191444-.0005825-.020914c-.0023064-.114743-.0459515-.272141-.1181459-.41704l-.0466402-.084998-.086784-.133955-12.6159915-18.29059c-1.4948005-2.168118-.5499139-5.070181 2.1356662-4.484459l.1404581.033427.1311966.038204 17.266036 5.482619 5.6768912-9.021098 1.9180563-3.054823c1.287758-2.064835 4.0818588-.900264 5.1383798 1.244342zm18.1362469-52.995629.1588725.065671.1462649.065677 9.7892751 4.583211 27.6833964 12.954776c2.012937.93975 3.617166 3.188296 3.798906 5.348215l.01207.184886.003886.19361-.094534 37.882207c-.006562 2.611607-2.236731 3.954534-4.687369 2.994466l-.138937-.05681-.147668-.066164-37.4728717-17.542354c-.9053308-.422792-1.7366534-1.111613-2.383897-1.947824-.6499837-.827177-1.1145013-1.779843-1.3142141-2.725159-.0425469-.196216-.0728878-.393081-.0918105-.605291l-.0151458-.217869-.0053626-.226225.0945235-37.886489c.0065705-2.608235 2.2378744-3.950661 4.6646153-2.998534zm-58.2898484-30.382242c3.5749102.025459 7.4044027.975589 11.2887764 2.793428 14.5182639 6.795421 26.1221784 24.022203 26.0855791 38.81999-.0100074 3.420268-.6391218 6.529508-1.8710465 9.212541-4.3235358 9.394537-15.0999866 11.971601-26.629743 6.576864-14.5155493-6.794233-26.11773489-24.023952-26.08113152-38.823531.02868293-11.019097 6.61532092-18.376939 16.61009062-18.575471l.3039117-.003821zm-7.3096135-45.8723473-14.061573 5.7977528 139.5782018 65.5941575 13.090787-6.153034z" fill="#0a2231" fill-rule="nonzero"/><path d="m214.250676 183.151163 5.64428 7.740563c.167512.231952.292118.493987.365107.76457.090249.317928.107345.648678.055892.975153-.025809.197595-.081701.390916-.163402.579798l-13.414761 30.936275c-.060166.141703-.133155.279132-.214856.408013-.257596.446808-.614155.833449-1.035154 1.129842-.184608.137429-.386478.253323-.597059.35212l-24.054807 11.082416-5.592826-7.671683c-.038632-.055892-.077263-.111784-.11162-.167512-.030083-.051618-.060166-.098797-.085975-.150415-.261871-.515523-.343572-1.099595-.231953-1.662297.034358-.163238.085976-.326476.15469-.485439l13.376129-30.846026c.365271-.841998 1.031045-1.524868 1.86433-1.907235zm-149.1528237 1.108308 7.8092764 19.613194c.2319522.588511.687144 1.129842 1.2069405 1.447605l17.4311007 10.661417c.7173914.43826 1.2028307 1.198557 1.3359854 1.881591.1158939.566976-.0128223 1.07806-.4423695 1.305738l-12.5944617 6.585075-2.5301037-2.521555c-.3179274-.313489-.6700476-.532619-1.0137839-.631417-.1632378-.051453-.3263113-.072988-.4810008-.060166l-15.5797572 1.05669c-.7259397.047344-1.5293064-.562702-1.9844982-1.322999-.2835702-.472453-.4339857-1.005071-.3480105-1.47325l2.8909364-15.786065.0729885-.408012c.0601662-.348011-.0085482-.764735-.1933208-1.172748-.0729886-.163238-.1632378-.326475-.2705835-.481001l-5.6400056-8.178657 5.5324955-8.792977 1.9202222-3.058284c.5840724-.936522 2.2851648-.146142 2.8779498 1.335821zm28.7755521-47.86484 27.6845056 12.955295c1.683832.786105 3.041188 2.800687 3.036933 4.501615l-.068734 27.156161-27.6887797-12.959405c-.2276781-.10751-.451082-.236226-.6657734-.390916-.6830343-.472617-1.2800934-1.13839-1.7010924-1.872878-.4167249-.721665-.6657735-1.507771-.6657735-2.237985zm161.7859166-29.918217c.485275 4.725184-1.018058 10.545524-4.518876 15.992208h.004274l-21.941428 33.453392c-.163238.249213-.369381.455356-.601333.618594-.390916.274858-.859095.412286-1.331711.408202-.386478-.004464-.77312-.107535-1.129678-.322391l-13.062641-7.826373c-2.109104-5.180375-.846107-12.916499 3.788662-19.982575 6.327314-9.652071 16.576445-14.432983 23.002392-10.777475l.004439-.004274h.00411c4.304184-6.430386 10.352202-10.648595 15.78179-11.559308zm-229.6205089-3.702687c3.0970797.021535 6.5420054.841998 10.1674297 2.538652 13.5824368 6.357397 24.5660554 22.641559 24.5318586 36.369973-.0088729 3.114341-.5843971 5.829052-1.6238257 8.092847-3.1015182-.021535-6.5421698-.841998-10.1675941-2.538652-13.5822724-6.357397-24.565891-22.641559-24.5316942-36.374411.0087086-3.114176.5799587-5.828888 1.6238257-8.088409zm100.2054859-31.3485608c.254342.0515523.505843.130564.748023.2393076l33.517283 16.173735-20.35212 8.6813575c-.979427.4165605-2.096118.3822033-3.045461-.0902493l-33.247249-16.1038277 20.2405-8.7027281c.206144-.0859752.420835-.1504155.635691-.1933209.498261-.1073457 1.009345-.1073457 1.503333-.0042741zm45.704117-30.4593837c3.990695 2.1176529 7.044705 4.6821137 8.904597 7.3366595-.837559.9019998-1.945867 1.7269014-3.333306 2.452841-9.510204 4.9655195-28.668206 3.3762114-40.003945-2.6289011-4.428627-2.3496051-7.822099-5.4940286-9.750869-8.7499075.816189-.9924135 1.92877-1.8858651 3.363389-2.6331753 9.510368-4.9656839 29.484395-1.7826291 40.820134 4.2224834z" fill="#fff"/></g></svg>