<svg height="96" viewBox="0 0 400 96" width="400" xmlns="http://www.w3.org/2000/svg"><g fill="none" fill-rule="evenodd"><path d="m56.6590103 8.33166866c15.5567901 15.32688684 10.422283 47.36008024-6.7438302 59.85149304-3.3719151 2.6822052-7.3569057 4.9812382-11.4951651 6.5905613-4.2915283 1.5326887-5.2877759 3.6018184-5.824217 8.1998844-.2299033 1.5326887-.3831721 3.9083562-.6130755 5.3644104-.6130754 4.1382595-4.2148938 6.4372925-8.9662287 6.8970991-7.7400779.536441-12.2615095-2.3756675-13.25775713-10.3456486 0 0-8.81295992-49.5058444-8.81295992-49.5058444-3.06537736-20.997835.53644104-31.57338685 22.53052365-34.56212978 11.9549717-1.83922642 25.9024387-.30653774 33.1827099 7.51017454zm-26.132342 29.35098824c-.536441.7663443-.536441 1.762592-.6130755 2.6055708-.3065377 5.9774858-.536441 12.2615094.3065378 18.0857264 2.6055707-2.5289363 5.3644103-6.9737335 6.1307547-9.885842 1.4560542-5.2111415.7663443-10.8820896-1.3794198-11.5717995-2.299033-.7663444-3.4485496-.5364411-4.4447972.7663443z" fill="#004666" fill-rule="nonzero"/><path d="m59.4178499 19.1371239c9.7325732 13.1811226 1.4560543 37.7041415-11.1119929 46.976908-4.5214316 4.2148939-11.1119929 5.4410449-15.710059 9.1194977-2.9887429 3.3719151-2.4523019 8.8895943-3.2952806 13.1811227-.9591111 4.5004442-8.5237889 5.2364256-12.7789419 3.5071631-.1098391-.0446378-2.8750149-15.3910625-8.29552751-46.0392741-2.29903302-14.6371769-2.83547406-29.2743538 14.79044581-32.493 12.0316061-2.5289363 26.8986863-3.2952807 36.4013561 5.7475826zm-31.1135802 17.2427476c-1.301682 1.5233493-2.3343865 10.4948086-.2299033 23.9865779.3065377 3.2186462 3.0653774 1.3027854 4.6747005-.4598066 3.0653774-3.0653774 6.064835-8.8665338 6.6671958-11.8783373.9962476-4.7513349.7663443-11.8017028-3.4485496-13.1811227-3.2186462-1.3794198-5.7475825-1.2261509-7.6634434 1.5326887z" fill="#00aeff"/><path d="m117.612354 7.94849649c-.766344 2.52893631-.229903 5.74758251.306538 8.50642221 2.299033 13.8708325 3.601818 32.7995377-.153269 44.2947029-1.302785 4.7513349-7.356906 2.3756674-8.583056-1.0728821-.536442-1.3027854-.766345-2.9121085-.842979-4.9046038-.459807-7.7400778 1.532688-15.9399623 3.218646-24.36975 1.302785-6.2073892 2.912108-13.0278538 1.302785-18.6221675-.919613-3.14201181-2.988743-5.51767926-6.05412-6.43729247-12.1082405-3.1420118-25.6725354 2.75883962-33.1060755 13.48766037-6.2840236 8.5830566-3.7550872 23.833309-.9962476 35.0985708 1.762592 7.9699812 4.2148939 16.8595755 7.4335401 22.6837925 8.0466156 18.3156297 33.795785 24.2931156 48.816134 12.184875 17.702555-14.9437146 14.100736-56.4795779 11.648434-77.4007784-.842978-5.36441037-5.211141-9.65593867-10.345648-10.88208962-5.747583-1.37941981-10.88209 1.37941981-12.644682 7.43354011z" fill="#156646" fill-rule="nonzero"/><path d="m122.287055 31.3219989c0-3.2186463.076634-6.4372925.68971-9.5793043 1.609323-7.586809 8.81296-12.72131604 15.250252-7.7400778 2.06913 19.4651462 5.057873 59.3916864-11.111993 72.7260779-12.644682 10.1923797-34.9453019 6.1307547-42.915283-8.12325-2.299033-5.824217-6.5139269-24.9061911-6.9737335-28.1248373-5.1345071-20.3847595 14.0241014-38.5471203 33.7957855-33.5658821 0 5.2111415-1.532689 10.422283-2.452302 15.5567901-1.762592 9.1194976-4.368163 19.0819741-1.685958 28.2014717 2.299034 5.7475826 11.265262 8.0466156 13.411026.8429788 2.75884-9.4260354 2.75884-20.3847595 1.992496-30.193967z" fill="#2dde98"/><g fill-rule="nonzero"><path d="m179.056275 3.12052714c-9.885842 1.07288208-21.304372 6.05412029-27.511762 12.49141276-4.214893 4.4447972-5.517679 10.8054552-4.904603 19.1586085.613075 7.3569057 2.528936 14.483908 3.678453 22.3006203 1.685957 11.2652618 4.368162 25.4426321 8.736325 33.4126133 2.299033 4.5214316 6.207389 5.9008514 11.035359 4.2915283 5.211141-1.762592 7.586808-5.6709481 8.429787-11.7250684.229904-1.8392265.229904-3.6018184.68971-5.287776 4.598066 4.1382595 7.893347 13.4876604 14.024102 15.0203491 6.513926 1.6093231 18.545533-8.6596911 15.250252-15.710059-.68971-1.9158608-9.042863-10.8820896-11.954972-13.7941981-3.371915-3.7550873-5.134507-3.7550873.613076-6.2840236 20.767931-7.3569057 29.504257-13.0278538 20.538028-35.9415496-4.521432-14.25400473-12.79795-25.4426321-25.212729-10.2690142-1.915861 2.4523019-3.678453 4.751335-5.211141 6.6671958.153269-.9196132.153269-1.5326887.383172-2.4523019 2.528936-7.66344339-.076635-13.02785377-8.583057-11.87833726z" fill="#664d2a"/><path d="m185.033761 14.5390578-2.835474 27.5117618c4.674701-5.0578726 16.476403-20.6912972 17.855823-22.2239858 4.981238-6.4372925 12.95122-6.6671958 15.096984 1.9158608 7.203637 18.9287052 2.912108 24.4463845-14.943715 31.1902147-3.678453 1.4560542-12.721316 3.6018184-8.276519 9.0428632 4.291529 4.5214316 8.583057 9.1194977 12.797951 13.7175637 3.98499 4.2148939 0 9.0428632-3.908356 11.8783373-6.513927 5.5943137-10.728821 1.0728821-14.177371-4.5980661-1.992495-2.299033-7.969981-13.2577571-9.962476-6.0541203-.613076 2.2223986-.536441 4.5980661-.919613 6.8204647-.68971 3.7550872-2.299033 7.0503679-6.513927 8.4297877-10.652187 4.8279694-9.196132-20.5380283-15.480156-47.8198868-3.908356-19.0053397 15.633425-28.2781062 31.266849-29.8107949z" fill="#ffc168"/><path d="m258.350845.43832195c-22.377255 2.68220519-37.091066 6.9737335-32.493 31.95655905 1.226151 10.3456486 2.375667 20.1548561 4.827969 31.4201179 4.137505 22.6136042 5.486024 34.9345207 28.585534 31.0286493 1.715599-.2900889 9.041973-1.7542955 10.344759-2.0608332 10.192379-.8429788 11.035358-14.1007359 6.667195-21.1511038-4.904603-5.2111415-11.341896 2.299033-16.859575 3.4485495.076634-4.8279693 4.598066-25.9790731 6.897099-34.9453019 2.75884-14.9437147 14.407274-42.30220761-7.969981-39.69663685z" fill="#662b26"/><path d="m269.079666 12.2400248c-1.226151 14.0241014-9.732574 47.8198868-12.26151 62.2271605 0 1.9158608.536441 3.9083561 2.682205 3.2952806 6.437293-1.1495165 15.939963-11.8783373 16.476404 1.0728821.076634 1.8392264 0 3.7550873-.306538 5.5943137-.459807 4.8279693-4.981238 5.5943137-8.966229 6.2073891-7.816712 1.226151-18.698802 4.9046038-25.212729-.8429787-1.072882-3.6018184-1.839226-7.4335401-2.528936-11.1886274-2.528936-12.4147783-4.674701-24.9061911-5.977486-37.4742383-4.286253-22.7885804 8.408734-25.9321967 26.2903-28.550615 1.300832-.1904824 8.195195-.8770076 9.804519-.3405666z" fill="#ff6c5f"/><path d="m307.561174 1.05139742c-14.407274 3.1420118-31.11358 6.20738916-28.50801 23.60340568-.229903 1.226151 5.134507 24.9828255 13.487661 65.0626345 1.992495 9.1961321 17.166113 5.1345071 18.622167-2.0691297 1.609323-8.8129599 6.897099-50.502092 7.663444-56.0197713 1.456054-11.7250684 6.437292-33.02944107-11.265262-30.57713918z" fill="#662034"/><path d="m318.060091 12.9297347c-.613075 15.7866934-4.061625 31.420118-5.594313 47.1301769-1.149517 9.1194977-2.299033 18.2389954-3.831722 27.2052241-.613076 3.525184-7.127003 5.9774859-10.728821 5.0578727-.536441-1.9924953-4.904604-23.1435991-11.725068-58.088901-.613076-4.8279694-.383172-9.7325732 3.29528-13.0278538 5.199146-4.6980235 12.036745-6.0679403 18.713169-7.5415956 1.491543-.3292211 8.415421-1.4246332 9.871475-.7349233z" fill="#ff4f81"/><path d="m364.719826 82.8203386c4.521432 12.6446816 20.308125 15.9399623 26.208977 2.7588396 6.820464-19.235243 6.590561-45.904026 8.736325-66.9784954 3.44855-25.67253539-20.844566-20.53802831-22.147351-9.73257311-1.149517 9.96247641.076634 26.28561091-1.226151 37.16770051-4.674701-10.1923797-6.513927-21.1511038-4.368163-33.2593444.613076-15.48015565-17.012844-10.80545517-27.511762-6.51392686-13.48766 5.21114156-20.767931 13.25775706-19.924953 25.36599766 1.456055 11.4185307 3.142012 14.1007359 11.265262 48.5095968.996248 4.7513349 1.915861 7.5868089 3.678453 10.1157453 6.590561 9.7325731 24.139847 4.2148938 25.289363-7.4335401z" fill="#662651"/><path d="m379.510272 26.2641262c1.149517-2.3756674 2.452302-4.8279693 3.831722-7.0503679 2.605571-4.2915283 8.659691-8.5830566 13.794198-7.0503679.076634 12.5680471-4.751335 61.8439882-8.659691 72.572809-2.988743 8.12325-14.483908 9.1194977-18.852071 1.6093231-1.609323-2.6822052-2.988743-5.5176792-4.6747-8.12325-.766345-1.3027854-1.37942-.2299033-1.685958.6897099-.459807 1.3027854-.919613 2.6822052-1.226151 3.9849906-.996248 8.3531533-12.79795 12.6446816-18.775436 7.8167123-2.299033-11.3418963-5.441045-23.833309-8.276519-34.945302-5.057873-14.5605424-5.824217-28.2781061 9.732573-35.6350118 6.973734-3.2952807 17.012844-7.3569057 24.446384-5.9774859v-.0766344c-2.222398 18.5455331 1.992496 27.6650307 8.353154 40.3097123.536441.7663444.842979-3.1420118.919613-3.4485495.919613-7.9699811 1.149517-16.9362099 1.072882-24.6762878z" fill="#b84592"/></g></g></svg>